<svg xmlns="http://www.w3.org/2000/svg" width="271" height="64" viewBox="0 0 271 64" fill="none"><path d="M17.4591 43.4516C16.7309 44.1789 15.6841 44.5789 13.7543 44.5789H5.07934C3.19507 44.5789 2.13916 44.3244 1.37453 43.5244C0.40053 42.5516 0.036411 41.5334 0 36.9242H2.79455C2.86738 40.4788 3.04943 41.1334 3.48636 41.5698C3.92329 42.0061 4.31472 42.1152 5.51628 42.1152H13.3173C14.5189 42.1152 15.0287 41.9698 15.4292 41.5334C15.8297 41.097 16.1119 40.0425 16.1119 37.6151C16.1119 35.1878 16.0118 34.606 15.4656 34.0605C15.0651 33.6969 14.5553 33.5241 13.2081 33.415L5.26139 32.6877C3.26789 32.5059 2.21197 32.1059 1.52016 31.415C0.609883 30.5059 0.3277 29.3513 0.3277 26.0876C0.3277 22.9693 0.691815 21.4148 1.81145 20.3238C2.50326 19.5965 3.63201 19.1965 5.45256 19.1965H13.3264C15.2198 19.1965 16.303 19.4511 17.0677 20.2511C18.0872 21.2693 18.3785 22.3148 18.4513 26.6694H15.6476C15.6476 23.4057 15.4292 22.6784 14.9922 22.2057C14.7085 21.9822 14.3823 21.8186 14.0334 21.7248C13.6844 21.631 13.32 21.6091 12.9623 21.6602H5.9077C4.70613 21.6602 4.23279 21.8057 3.80496 22.2421C3.37713 22.6784 3.14956 23.8785 3.14956 26.0512C3.14956 28.224 3.29521 28.9513 3.80496 29.4604C4.31472 29.9695 4.71524 29.9695 6.05334 30.0786L14 30.7968C15.9298 30.9786 17.0131 31.3786 17.7049 32.0695C18.6152 32.9787 18.9429 34.206 18.9429 37.5788C18.9429 40.9516 18.5514 42.4061 17.4591 43.4516Z" fill="white"></path><path d="M47.3435 33.4878C46.5425 34.2787 45.3409 34.4969 43.4567 34.4969H34.2356V44.5789H31.3955V19.1965H43.484C45.3682 19.1965 46.5698 19.4147 47.3709 20.2147C48.4177 21.1966 49.1914 22.6057 49.1914 26.924C49.1914 31.0877 48.3904 32.5059 47.3435 33.4878ZM42.7922 32.0332C44.1758 32.0332 44.7857 31.8877 45.2226 31.4877C45.6595 31.0877 46.2421 30.1513 46.2421 26.8512C46.2421 23.5512 45.6959 22.6421 45.2226 22.2057C44.7493 21.7693 44.1758 21.6602 42.7922 21.6602H34.1901V32.0332H42.7922Z" fill="white"></path><path d="M77.51 44.5789H60.7336V19.1965H77.6193V21.6602H63.601V30.1877H75.6258V32.615H63.601V42.1152H77.51V44.5789Z" fill="white"></path><path d="M106.038 43.5607C105.246 44.288 104.336 44.5789 102.051 44.5789H94.5686C92.2838 44.5789 91.3736 44.288 90.5725 43.5607C89.2708 42.3334 88.4698 40.4788 88.4698 31.8877C88.4698 23.2966 89.2708 21.442 90.5725 20.2147C91.3736 19.4874 92.2838 19.1965 94.5686 19.1965H102.088C104.372 19.1965 105.283 19.4874 106.075 20.2147C107.276 21.3329 107.895 22.8239 107.968 27.1058H105.128C105.019 23.6603 104.618 22.7148 104.108 22.2057C103.744 21.8784 103.307 21.6602 101.787 21.6602H94.8508C93.3307 21.6602 92.8937 21.8784 92.5296 22.2057C91.947 22.7875 91.3645 24.0966 91.3645 31.8877C91.3645 39.6788 91.947 40.9788 92.5296 41.5698C92.8937 41.897 93.3307 42.1152 94.8508 42.1152H101.787C103.307 42.1152 103.744 41.897 104.108 41.5698C104.618 41.0607 105.019 40.1879 105.164 36.2787H107.995C107.859 41.097 107.276 42.4425 106.038 43.5607Z" fill="white"></path><path d="M128.586 21.6602V44.5789H125.718V21.6602H117.444V19.1965H136.86V21.6602H128.586Z" fill="white"></path><path d="M161.701 34.2423C161.155 33.7332 160.391 33.5605 158.87 33.5605H150.368V44.5789H147.501V19.1965H160.354C162.129 19.1965 163.294 19.4874 164.095 20.2511C165.069 21.2329 165.688 22.533 165.688 26.2331C165.688 30.615 164.46 31.8877 161.92 32.4332C164.423 33.015 165.324 33.7332 165.506 37.7969C165.616 40.7697 165.725 43.0153 165.907 44.5426H163.076C162.795 42.3287 162.637 40.101 162.603 37.8697C162.53 35.3696 162.238 34.7151 161.701 34.2423ZM159.59 31.1604C159.982 31.2161 160.381 31.1908 160.763 31.086C161.145 30.9812 161.502 30.7993 161.811 30.5513C162.238 30.115 162.821 29.2422 162.821 26.3785C162.821 23.5148 162.275 22.6057 161.847 22.1693C161.419 21.733 160.864 21.6602 159.662 21.6602H150.368V31.1604H159.59Z" fill="white"></path><path d="M197.858 34.2423C197.858 40.3334 197.311 41.9698 196.037 43.2698C195.054 44.1789 193.634 44.5789 190.766 44.5789H185.505C182.674 44.5789 181.291 44.2153 180.353 43.2698C179.079 42.0061 178.532 40.4061 178.532 34.2423V19.1965H181.4V34.7514C181.4 39.7243 181.837 40.7334 182.492 41.3879C182.929 41.8243 183.584 42.0789 186.051 42.0789H190.439C192.878 42.0789 193.488 41.8607 193.962 41.3879C194.617 40.697 195.017 39.7879 195.017 34.7514V19.1965H197.848L197.858 34.2423Z" fill="white"></path><path d="M236.38 44.5789H233.477V21.8511H233.04L225.758 43.5698C225.503 44.4062 225.357 44.5516 224.565 44.5516H222.854C222.053 44.5516 221.944 44.4062 221.652 43.5698L214.37 21.633H213.933V44.5789H211.139V19.1965H215.49C216.327 19.1965 216.582 19.4511 216.8 20.2147L223.591 41.0243H224.028L230.773 20.2147C230.992 19.4511 231.247 19.1965 232.084 19.1965H236.335L236.38 44.5789Z" fill="white"></path><path d="M257.653 33.9514L247.34 19.1965H250.681L257.617 29.3149L268.185 44.5789H264.99L257.653 33.9514Z" fill="url(#paint0_linear_187_41667)"></path><path d="M250.863 8.36001C253.258 5.9049 256.065 3.88663 259.155 2.39624C261.152 1.35873 263.368 0.813234 265.618 0.805298C266.181 0.820772 266.739 0.915653 267.275 1.08712C267.853 1.27219 268.395 1.5551 268.877 1.9235C269.778 2.68269 270.416 3.70748 270.698 4.85084C270.95 5.81731 271.045 6.81793 270.98 7.81455C270.936 8.73284 270.811 9.64549 270.607 10.5419C270.425 11.451 270.179 12.2783 269.915 13.1238C268.794 16.3974 267.339 19.5474 265.573 22.524C264.735 24.0149 263.834 25.4604 262.906 26.8968C261.977 28.3332 261.022 29.7332 260.038 31.1151C259.055 32.4969 258.054 33.8424 257.044 35.2333C256.033 36.6243 254.986 37.9607 253.93 39.2607C252.875 40.5607 251.81 41.9062 250.708 43.1972C249.607 44.4881 248.514 45.7881 247.367 47.0427C246.22 48.2973 245.083 49.57 243.89 50.7791C242.698 51.9883 241.496 53.2156 240.249 54.4156C237.743 56.8102 234.997 58.9425 232.057 60.7794C231.287 61.2388 230.494 61.6576 229.681 62.0339C228.847 62.4368 227.978 62.7653 227.086 63.0158C226.118 63.3034 225.11 63.4354 224.101 63.4067C222.877 63.3741 221.697 62.9503 220.733 62.1976C220.251 61.807 219.844 61.3327 219.531 60.7976C219.24 60.3065 219.019 59.7771 218.876 59.2248C218.626 58.2455 218.528 57.2337 218.584 56.2247L221.843 56.3338C221.807 57.0128 221.875 57.6933 222.044 58.352C222.152 58.841 222.418 59.2813 222.799 59.6066C223.409 60.1521 224.793 60.2248 226.222 59.8339C227.725 59.423 229.176 58.8404 230.545 58.0975C233.404 56.5975 235.77 54.3156 238.401 52.2792C243.254 47.6888 247.751 42.7382 251.855 37.4698C256.08 32.3097 259.911 26.8396 263.315 21.1058C264.726 18.0966 266.365 15.3784 267.202 12.251C267.631 10.746 267.882 9.19601 267.949 7.63272C268.012 6.14178 267.639 4.77812 266.929 4.25992C266.219 3.74173 265.236 3.35081 263.37 3.75082C259.793 4.39629 256.588 6.95998 255.041 8.3691L250.863 8.36001Z" fill="url(#paint1_linear_187_41667)"></path><defs><linearGradient id="paint0_linear_187_41667" x1="265.4" y1="43.5062" x2="253.169" y2="24.855" gradientUnits="userSpaceOnUse"><stop stop-color="#F71816"></stop><stop offset="0.14" stop-color="#F55419"></stop><stop offset="0.32" stop-color="#F3971C"></stop><stop offset="0.46" stop-color="#F1C81E"></stop><stop offset="0.57" stop-color="#F0E71F"></stop><stop offset="0.63" stop-color="#F0F220"></stop><stop offset="0.99" stop-color="#3AB4CB"></stop></linearGradient><linearGradient id="paint1_linear_187_41667" x1="225.093" y1="63.3158" x2="261.777" y2="10.4251" gradientUnits="userSpaceOnUse"><stop stop-color="#B12889"></stop><stop offset="0.33" stop-color="#F71816"></stop><stop offset="0.42" stop-color="#F55419"></stop><stop offset="0.54" stop-color="#F3971C"></stop><stop offset="0.63" stop-color="#F1C81E"></stop><stop offset="0.71" stop-color="#F0E71F"></stop><stop offset="0.75" stop-color="#F0F220"></stop><stop offset="0.99" stop-color="#3CCBDA"></stop></linearGradient></defs></svg>
